<mxfile host="app.diagrams.net" modified="2022-09-27T03:17:03.087Z" agent="5.0 (Windows NT 10.0; Win64; x64) AppleWebKit/537.36 (KHTML, like Gecko) Chrome/105.0.0.0 Safari/537.36" etag="2CZEzTjVPnXBUqqSsdhd" version="20.3.6" type="github">
  <diagram id="gHdGT0hqlNenqPQnGmaF" name="第 1 页">
    <mxGraphModel dx="1038" dy="579" grid="1" gridSize="10" guides="1" tooltips="1" connect="1" arrows="1" fold="1" page="1" pageScale="1" pageWidth="827" pageHeight="1169" math="0" shadow="0">
      <root>
        <mxCell id="0" />
        <mxCell id="1" parent="0" />
        <mxCell id="UIsmuP5mog6YXnoimDV5-1" value="" style="rounded=1;whiteSpace=wrap;html=1;" vertex="1" parent="1">
          <mxGeometry x="61" y="730" width="120" height="60" as="geometry" />
        </mxCell>
        <mxCell id="UIsmuP5mog6YXnoimDV5-2" value="" style="rounded=1;whiteSpace=wrap;html=1;" vertex="1" parent="1">
          <mxGeometry x="61" y="850" width="120" height="60" as="geometry" />
        </mxCell>
        <mxCell id="UIsmuP5mog6YXnoimDV5-3" value="音乐类思路" style="text;html=1;strokeColor=#6c8ebf;fillColor=#dae8fc;align=center;verticalAlign=middle;whiteSpace=wrap;rounded=0;fontSize=27;" vertex="1" parent="1">
          <mxGeometry x="60" y="600" width="670" height="60" as="geometry" />
        </mxCell>
      </root>
    </mxGraphModel>
  </diagram>
</mxfile>
